<svg width="100" height="94" viewBox="0 0 100 94" fill="none" xmlns="http://www.w3.org/2000/svg">
<path d="M40.0868 44.4907L30.8783 53.7381C30.1857 54.4317 30.1857 55.5362 30.8783 56.2298C31.2118 56.5637 31.6735 56.7436 32.1095 56.7436C32.5712 56.7436 33.0073 56.5637 33.3664 56.2298L42.5748 46.9823C43.2674 46.2888 43.2674 45.1842 42.5748 44.4907C41.8823 43.8228 40.7793 43.8228 40.0868 44.4907Z" fill="white"/>
<path d="M74.2485 54.4322L54.8056 34.807L57.5758 32.0071C60.0639 33.497 63.2445 33.7025 64.7322 33.7025C65.0913 33.7025 65.3478 33.6768 65.4761 33.6768C65.9634 33.6511 66.4251 33.3942 66.7586 33.0089L74.3511 23.2991C74.9667 22.5284 74.8128 21.4239 74.0689 20.8331C73.2994 20.2166 72.1965 20.3707 71.6065 21.1156L64.5014 30.1833C63.3728 30.1576 61.6285 29.9778 60.1921 29.387L70.2727 19.3175C70.9396 18.6239 70.9396 17.5194 70.2727 16.8258C69.5801 16.158 68.4772 16.158 67.7846 16.8258L57.704 26.921C57.1397 25.5082 56.9602 23.7614 56.9345 22.6055L66.143 15.5158C66.9125 14.925 67.0664 13.8204 66.4764 13.0498C65.8608 12.2792 64.7579 12.125 63.9884 12.7158L54.113 20.345C53.7282 20.6533 53.4718 21.1156 53.4461 21.6294C53.4205 22.1688 53.2409 26.4329 55.1134 29.5411L52.3175 32.3153L33.0798 12.8957C32.772 12.5617 32.3103 12.3562 31.8485 12.3562C31.3868 12.3562 30.9251 12.5617 30.5917 12.87L30.3352 13.1525C30.053 13.4351 29.8735 13.8204 29.8222 14.2314C29.788 14.7623 29.7709 15.3017 29.7709 15.8497C29.7965 21.7064 32.695 28.5393 38.3894 36.1941C42.5191 41.794 46.6231 45.6985 46.777 45.8783C47.1618 46.2122 47.6748 46.3921 48.1878 46.3407L51.6506 45.9554C52.6253 45.8269 53.3178 44.9792 53.2152 44.0031C53.087 43.027 52.2149 42.3334 51.2658 42.4619L48.6238 42.7444C45.9819 40.0986 35.1318 28.6164 33.4902 18.29L71.7604 56.9239C72.0939 57.2578 72.5556 57.4376 73.0173 57.4376C73.4533 57.4376 73.8894 57.2578 74.2485 56.9239C74.941 56.2303 74.941 55.1258 74.2485 54.4322Z" fill="white"/>
<path d="M27.898 67C27.5238 67 27.1746 66.8268 26.8753 66.5381C19.966 59.2925 16 48.9582 16 38.1909C16 17.1181 30.7914 0 49 0C67.2086 0 82 17.1181 82 38.1909C82 47.2839 78.6576 56.4925 72.5714 64.0844C71.9977 64.8061 71.0249 64.835 70.4014 64.1711C69.8027 63.5071 69.7528 62.3813 70.3265 61.6596C75.8889 54.7316 78.9569 46.3891 78.9569 38.1909C78.9569 19.081 65.5125 3.52176 49 3.52176C32.4875 3.52176 19.0431 19.081 19.0431 38.1909C19.0431 47.9767 22.6599 57.3585 28.9206 63.9113C29.5442 64.5752 29.5941 65.6721 29.0204 66.3938C28.7211 66.7979 28.322 67 27.898 67Z" fill="white"/>
<path d="M15.6786 74.2976H11.073C11.0403 73.9179 10.9532 73.5734 10.8117 73.2642C10.6756 72.955 10.4851 72.6892 10.2401 72.4668C10.0005 72.239 9.70929 72.0654 9.36632 71.9461C9.02335 71.8213 8.63411 71.759 8.1986 71.759C7.43644 71.759 6.79133 71.9434 6.26327 72.3122C5.74065 72.6811 5.34324 73.21 5.07104 73.8989C4.80429 74.5878 4.67091 75.415 4.67091 76.3805C4.67091 77.4003 4.80701 78.2546 5.07921 78.9435C5.35685 79.627 5.75698 80.1423 6.2796 80.4895C6.80222 80.8312 7.431 81.0021 8.16593 81.0021C8.58512 81.0021 8.96075 80.9506 9.29283 80.8475C9.62491 80.739 9.91344 80.5844 10.1584 80.3837C10.4034 80.183 10.6021 79.9416 10.7545 79.6596C10.9124 79.3721 11.0186 79.0493 11.073 78.6913L15.6786 78.7239C15.6242 79.429 15.4254 80.1477 15.0825 80.88C14.7395 81.6069 14.2523 82.2795 13.6208 82.8979C12.9947 83.5109 12.219 84.0045 11.2935 84.3788C10.368 84.753 9.29283 84.9402 8.06794 84.9402C6.53275 84.9402 5.15543 84.612 3.93598 83.9557C2.72198 83.2993 1.76112 82.3338 1.05341 81.059C0.351135 79.7843 0 78.2248 0 76.3805C0 74.5254 0.359301 72.9632 1.0779 71.6939C1.7965 70.4191 2.76553 69.4563 3.98497 68.8054C5.20442 68.149 6.56541 67.8209 8.06794 67.8209C9.12407 67.8209 10.0958 67.9646 10.9832 68.2521C11.8705 68.5396 12.649 68.96 13.3186 69.5133C13.9882 70.0611 14.5272 70.7365 14.9355 71.5393C15.3438 72.3421 15.5915 73.2615 15.6786 74.2976Z" fill="white"/>
<path d="M22.3114 77.6824V84.7124H17.8038V68.0487H22.1481V74.5905H22.2787C22.5618 73.7931 23.0327 73.172 23.6914 72.7272C24.3501 72.277 25.1422 72.0519 26.0677 72.0519C26.9551 72.0519 27.7254 72.2526 28.3787 72.654C29.0374 73.0554 29.5464 73.6087 29.9057 74.3138C30.2704 75.019 30.4501 75.8272 30.4446 76.7385V84.7124H25.937V77.6824C25.9425 77.064 25.7873 76.5785 25.4716 76.2259C25.1613 75.8733 24.7176 75.6971 24.1405 75.6971C23.7758 75.6971 23.4546 75.7784 23.177 75.9411C22.9048 76.0985 22.6924 76.3263 22.54 76.6246C22.393 76.9175 22.3168 77.2701 22.3114 77.6824Z" fill="white"/>
<path d="M38.68 84.9402C37.3408 84.9402 36.1866 84.6852 35.2176 84.1753C34.254 83.66 33.5109 82.9223 32.9883 81.9622C32.4711 80.9967 32.2126 79.8413 32.2126 78.496C32.2126 77.205 32.4739 76.0768 32.9965 75.1112C33.5191 74.1457 34.2568 73.3944 35.2095 72.8574C36.1621 72.3204 37.2863 72.0519 38.582 72.0519C39.5292 72.0519 40.3867 72.1983 41.1543 72.4912C41.9219 72.7842 42.5778 73.21 43.1222 73.7687C43.6666 74.322 44.0858 74.9946 44.3798 75.7866C44.6738 76.5785 44.8208 77.4708 44.8208 78.4635V79.505H33.6171V77.0314H40.6725C40.667 76.6734 40.5745 76.3588 40.3948 76.0876C40.2206 75.811 39.9838 75.5967 39.6844 75.4448C39.3904 75.2875 39.0556 75.2089 38.68 75.2089C38.3152 75.2089 37.9804 75.2875 37.6756 75.4448C37.3707 75.5967 37.1257 75.8083 36.9406 76.0795C36.761 76.3507 36.6657 76.668 36.6548 77.0314V79.7002C36.6548 80.1016 36.7392 80.4596 36.908 80.7743C37.0767 81.0889 37.319 81.3357 37.6347 81.5147C37.9505 81.6937 38.3316 81.7832 38.778 81.7832C39.0883 81.7832 39.3714 81.7398 39.6272 81.653C39.8885 81.5662 40.1117 81.4415 40.2968 81.2787C40.4819 81.1106 40.618 80.9099 40.7051 80.6766H44.8208C44.6792 81.5445 44.3444 82.2985 43.8163 82.9386C43.2883 83.5732 42.5887 84.0669 41.7177 84.4194C40.8521 84.7666 39.8395 84.9402 38.68 84.9402Z" fill="white"/>
<path d="M54.1728 72.2146V75.4692H45.7782V72.2146H54.1728ZM47.3787 84.7124V71.8566C47.3787 70.826 47.5638 69.9716 47.934 69.2936C48.3042 68.6155 48.8268 68.1084 49.5019 67.772C50.1769 67.4357 50.9717 67.2676 51.8863 67.2676C52.4579 67.2676 53.0132 67.311 53.5522 67.3978C54.0966 67.4846 54.4994 67.5605 54.7607 67.6256L54.1075 70.8477C53.9441 70.7988 53.7536 70.7609 53.5359 70.7338C53.3181 70.7012 53.1276 70.6849 52.9642 70.6849C52.5396 70.6849 52.2538 70.7744 52.1068 70.9534C51.9598 71.1324 51.8863 71.3684 51.8863 71.6613V84.7124H47.3787Z" fill="white"/>
<path d="M63.4248 72.2146V75.4692H55.0302V72.2146H63.4248ZM56.6307 84.7124V71.8566C56.6307 70.826 56.8158 69.9716 57.186 69.2936C57.5562 68.6155 58.0788 68.1084 58.7539 67.772C59.4289 67.4357 60.2237 67.2676 61.1383 67.2676C61.7099 67.2676 62.2652 67.311 62.8042 67.3978C63.3486 67.4846 63.7514 67.5605 64.0127 67.6256L63.3595 70.8477C63.1961 70.7988 63.0056 70.7609 62.7878 70.7338C62.5701 70.7012 62.3796 70.6849 62.2162 70.6849C61.7916 70.6849 61.5058 70.7744 61.3588 70.9534C61.2118 71.1324 61.1383 71.3684 61.1383 71.6613V84.7124H56.6307Z" fill="white"/>
<path d="M70.7925 84.9402C69.4533 84.9402 68.2992 84.6852 67.3301 84.1753C66.3666 83.66 65.6235 82.9223 65.1009 81.9622C64.5837 80.9967 64.3251 79.8413 64.3251 78.496C64.3251 77.205 64.5864 76.0768 65.109 75.1112C65.6316 74.1457 66.3693 73.3944 67.322 72.8574C68.2747 72.3204 69.3988 72.0519 70.6945 72.0519C71.6418 72.0519 72.4992 72.1983 73.2668 72.4912C74.0344 72.7842 74.6904 73.21 75.2348 73.7687C75.7792 74.322 76.1984 74.9946 76.4923 75.7866C76.7863 76.5785 76.9333 77.4708 76.9333 78.4635V79.505H65.7296V77.0314H72.785C72.7795 76.6734 72.687 76.3588 72.5073 76.0876C72.3331 75.811 72.0963 75.5967 71.7969 75.4448C71.5029 75.2875 71.1681 75.2089 70.7925 75.2089C70.4278 75.2089 70.093 75.2875 69.7881 75.4448C69.4832 75.5967 69.2383 75.8083 69.0532 76.0795C68.8735 76.3507 68.7782 76.668 68.7673 77.0314V79.7002C68.7673 80.1016 68.8517 80.4596 69.0205 80.7743C69.1893 81.0889 69.4315 81.3357 69.7473 81.5147C70.063 81.6937 70.4441 81.7832 70.8905 81.7832C71.2008 81.7832 71.4839 81.7398 71.7398 81.653C72.0011 81.5662 72.2243 81.4415 72.4094 81.2787C72.5945 81.1106 72.7306 80.9099 72.8177 80.6766H76.9333C76.7917 81.5445 76.4569 82.2985 75.9289 82.9386C75.4008 83.5732 74.7013 84.0669 73.8302 84.4194C72.9646 84.7666 71.9521 84.9402 70.7925 84.9402Z" fill="white"/>
<path d="M90.2376 76.2829H86.0893C86.0676 76.0279 85.9777 75.8083 85.8199 75.6238C85.662 75.4394 85.4578 75.2984 85.2074 75.2007C84.9624 75.0977 84.6902 75.0461 84.3908 75.0461C84.0043 75.0461 83.6722 75.1166 83.3946 75.2577C83.1169 75.3987 82.9808 75.5994 82.9863 75.8598C82.9808 76.0442 83.0598 76.2151 83.2231 76.3724C83.3919 76.5297 83.7158 76.6517 84.1948 76.7385L86.7426 77.1942C88.0274 77.4274 88.9828 77.8207 89.6088 78.374C90.2403 78.9218 90.5588 79.6568 90.5643 80.579C90.5588 81.4686 90.2921 82.2416 89.764 82.8979C89.2414 83.5488 88.5255 84.0533 87.6164 84.4113C86.7127 84.7639 85.681 84.9402 84.5215 84.9402C82.6052 84.9402 81.1054 84.5496 80.022 83.7685C78.9441 82.9874 78.3426 81.9568 78.2174 80.6766H82.6923C82.7522 81.0726 82.9482 81.3791 83.2803 81.5961C83.6178 81.8076 84.0424 81.9134 84.5541 81.9134C84.9679 81.9134 85.3081 81.8429 85.5749 81.7018C85.8471 81.5608 85.9859 81.3601 85.9913 81.0997C85.9859 80.8611 85.8661 80.6712 85.632 80.5302C85.4034 80.3891 85.0441 80.2752 84.5541 80.1884L82.333 79.7979C81.0537 79.5755 80.0955 79.1524 79.4586 78.5286C78.8217 77.9048 78.5059 77.102 78.5114 76.1202C78.5059 75.2523 78.7346 74.5173 79.1973 73.9151C79.6655 73.3076 80.3324 72.8465 81.1979 72.5319C82.069 72.2119 83.1006 72.0519 84.2928 72.0519C86.1057 72.0519 87.5347 72.4262 88.5799 73.1747C89.6306 73.9233 90.1832 74.9593 90.2376 76.2829Z" fill="white"/>
<path d="M99.7714 72.2146V75.4692H91.5074V72.2146H99.7714ZM93.108 69.2204H97.6155V80.6929C97.6155 80.8665 97.6455 81.0129 97.7054 81.1323C97.7653 81.2462 97.8578 81.333 97.983 81.3926C98.1082 81.4469 98.2688 81.474 98.4648 81.474C98.6009 81.474 98.7588 81.4577 98.9384 81.4252C99.1235 81.3926 99.2596 81.3655 99.3467 81.3438L100 84.5008C99.7986 84.5605 99.51 84.6337 99.1344 84.7205C98.7642 84.8073 98.3233 84.8642 97.8115 84.8914C96.7772 84.9456 95.9089 84.8398 95.2066 84.574C94.5043 84.3028 93.9763 83.877 93.6224 83.2966C93.2686 82.7162 93.0971 81.9893 93.108 81.116V69.2204Z" fill="white"/>
<path d="M50.4201 90.5505H2.7999C2.42207 90.5505 2.10022 90.2343 2.10022 89.8492C2.10022 89.4642 2.42207 89.1479 2.7999 89.1479H50.4201C50.812 89.1479 51.1198 89.4642 51.1198 89.8492C51.1198 90.2343 50.812 90.5505 50.4201 90.5505Z" fill="white"/>
<path d="M50.4212 93.9167H40.0571C39.6789 93.9167 39.3568 93.6035 39.3568 93.2086C39.3568 92.8274 39.6789 92.5142 40.0571 92.5142H50.4212C50.8134 92.5142 51.1215 92.8274 51.1215 93.2086C51.1215 93.6035 50.8134 93.9167 50.4212 93.9167Z" fill="white"/>
<path d="M53.0822 93.8516V89.4021H56.0584V90.1777H54.0325V91.238H55.8609V92.0136H54.0325V93.8516H53.0822Z" fill="white"/>
<path d="M57.5992 93.9146C57.3841 93.9146 57.1925 93.8776 57.0242 93.8038C56.8559 93.7285 56.7228 93.6177 56.6247 93.4714C56.5281 93.3236 56.4799 93.1397 56.4799 92.9195C56.4799 92.7341 56.5142 92.5784 56.583 92.4524C56.6518 92.3264 56.7454 92.225 56.864 92.1483C56.9825 92.0715 57.1171 92.0136 57.2678 91.9745C57.42 91.9354 57.5795 91.9078 57.7463 91.8919C57.9424 91.8716 58.1004 91.8528 58.2204 91.8354C58.3404 91.8166 58.4275 91.7891 58.4816 91.7529C58.5357 91.7167 58.5628 91.6631 58.5628 91.5921V91.5791C58.5628 91.4415 58.5189 91.335 58.4311 91.2597C58.3448 91.1844 58.2219 91.1467 58.0624 91.1467C57.8941 91.1467 57.7602 91.1836 57.6607 91.2575C57.5612 91.3299 57.4954 91.4212 57.4632 91.5313L56.5984 91.4617C56.6423 91.259 56.7286 91.0837 56.8574 90.936C56.9861 90.7868 57.1522 90.6724 57.3556 90.5927C57.5605 90.5116 57.7975 90.471 58.0668 90.471C58.2541 90.471 58.4333 90.4928 58.6045 90.5362C58.7772 90.5797 58.9301 90.647 59.0632 90.7383C59.1979 90.8295 59.304 90.9468 59.3815 91.0902C59.4591 91.2322 59.4978 91.4024 59.4978 91.6008V93.8516H58.6111V93.3888H58.5848C58.5306 93.4931 58.4582 93.5851 58.3675 93.6647C58.2767 93.7429 58.1677 93.8045 58.0404 93.8494C57.9131 93.8928 57.7661 93.9146 57.5992 93.9146ZM57.867 93.2758C58.0046 93.2758 58.126 93.249 58.2314 93.1955C58.3367 93.1404 58.4194 93.0665 58.4794 92.9738C58.5394 92.8812 58.5694 92.7761 58.5694 92.6588V92.3047C58.5401 92.3235 58.4999 92.3409 58.4487 92.3568C58.3989 92.3713 58.3426 92.3851 58.2797 92.3981C58.2167 92.4097 58.1538 92.4206 58.0909 92.4307C58.028 92.4394 57.9709 92.4474 57.9197 92.4546C57.81 92.4705 57.7141 92.4959 57.6322 92.5306C57.5502 92.5654 57.4866 92.6125 57.4412 92.6719C57.3959 92.7298 57.3732 92.8022 57.3732 92.8891C57.3732 93.0151 57.4193 93.1114 57.5115 93.1781C57.6051 93.2432 57.7236 93.2758 57.867 93.2758Z" fill="white"/>
<path d="M63.0283 91.4661L62.1723 91.5182C62.1577 91.4458 62.1262 91.3806 62.0779 91.3227C62.0296 91.2633 61.966 91.2162 61.887 91.1815C61.8094 91.1453 61.7165 91.1272 61.6082 91.1272C61.4634 91.1272 61.3412 91.1576 61.2417 91.2184C61.1422 91.2778 61.0924 91.3575 61.0924 91.4574C61.0924 91.5371 61.1246 91.6044 61.189 91.6594C61.2534 91.7145 61.3639 91.7587 61.5204 91.792L62.1306 91.9136C62.4584 91.9803 62.7027 92.0874 62.8637 92.2352C63.0247 92.3829 63.1051 92.577 63.1051 92.8174C63.1051 93.0361 63.04 93.228 62.9098 93.3932C62.781 93.5583 62.604 93.6872 62.3786 93.7799C62.1548 93.8711 61.8965 93.9167 61.6038 93.9167C61.1575 93.9167 60.802 93.8248 60.5371 93.6408C60.2737 93.4554 60.1194 93.2034 60.074 92.8848L60.9937 92.837C61.0215 92.9717 61.0888 93.0745 61.1956 93.1455C61.3024 93.215 61.4392 93.2498 61.606 93.2498C61.7699 93.2498 61.9016 93.2186 62.0011 93.1563C62.1021 93.0926 62.1533 93.0108 62.1548 92.9108C62.1533 92.8268 62.1174 92.758 62.0472 92.7045C61.977 92.6494 61.8687 92.6074 61.7224 92.5784L61.1385 92.4633C60.8093 92.3981 60.5642 92.2851 60.4032 92.1244C60.2437 91.9636 60.164 91.7587 60.164 91.5095C60.164 91.2952 60.2225 91.1105 60.3396 90.9555C60.4581 90.8006 60.6242 90.6811 60.8378 90.5971C61.0529 90.513 61.3046 90.471 61.5929 90.471C62.0187 90.471 62.3538 90.5601 62.5981 90.7383C62.844 90.9164 62.9874 91.159 63.0283 91.4661Z" fill="white"/>
<path d="M65.4872 90.5145V91.2097H63.4569V90.5145H65.4872ZM63.9178 89.715H64.8528V92.8261C64.8528 92.9116 64.866 92.9782 64.8923 93.026C64.9187 93.0723 64.9553 93.1049 65.0021 93.1238C65.0504 93.1426 65.106 93.152 65.1689 93.152C65.2128 93.152 65.2567 93.1484 65.3006 93.1411C65.3445 93.1324 65.3781 93.1259 65.4016 93.1216L65.5486 93.8103C65.5018 93.8248 65.4359 93.8414 65.3511 93.8603C65.2662 93.8805 65.163 93.8928 65.0416 93.8972C64.8162 93.9059 64.6187 93.8762 64.449 93.8081C64.2807 93.74 64.1497 93.6343 64.0561 93.4909C63.9624 93.3475 63.9163 93.1665 63.9178 92.9478V89.715Z" fill="white"/>
<path d="M69.3397 90.5145V91.2097H67.259V90.5145H69.3397ZM67.7353 93.8516V90.2733C67.7353 90.0315 67.7828 89.8309 67.8779 89.6715C67.9745 89.5122 68.1062 89.3927 68.273 89.3131C68.4398 89.2334 68.6293 89.1936 68.8415 89.1936C68.9849 89.1936 69.1159 89.2044 69.2344 89.2262C69.3544 89.2479 69.4436 89.2674 69.5022 89.2848L69.3354 89.98C69.2988 89.9685 69.2534 89.9576 69.1993 89.9475C69.1466 89.9373 69.0925 89.9322 69.0368 89.9322C68.8993 89.9322 68.8035 89.9641 68.7493 90.0278C68.6952 90.0901 68.6681 90.1777 68.6681 90.2907V93.8516H67.7353Z" fill="white"/>
<path d="M71.3135 93.9167C70.9726 93.9167 70.6777 93.8451 70.429 93.7017C70.1817 93.5568 69.9907 93.3555 69.8561 93.0977C69.7215 92.8384 69.6542 92.5379 69.6542 92.1961C69.6542 91.8514 69.7215 91.5501 69.8561 91.2923C69.9907 91.033 70.1817 90.8317 70.429 90.6883C70.6777 90.5435 70.9726 90.471 71.3135 90.471C71.6544 90.471 71.9486 90.5435 72.1959 90.6883C72.4446 90.8317 72.6363 91.033 72.7709 91.2923C72.9055 91.5501 72.9728 91.8514 72.9728 92.1961C72.9728 92.5379 72.9055 92.8384 72.7709 93.0977C72.6363 93.3555 72.4446 93.5568 72.1959 93.7017C71.9486 93.8451 71.6544 93.9167 71.3135 93.9167ZM71.3179 93.1998C71.473 93.1998 71.6025 93.1563 71.7064 93.0694C71.8103 92.9811 71.8886 92.8609 71.9412 92.7088C71.9954 92.5567 72.0225 92.3836 72.0225 92.1896C72.0225 91.9955 71.9954 91.8224 71.9412 91.6703C71.8886 91.5182 71.8103 91.398 71.7064 91.3097C71.6025 91.2213 71.473 91.1771 71.3179 91.1771C71.1613 91.1771 71.0296 91.2213 70.9228 91.3097C70.8175 91.398 70.7377 91.5182 70.6836 91.6703C70.6309 91.8224 70.6046 91.9955 70.6046 92.1896C70.6046 92.3836 70.6309 92.5567 70.6836 92.7088C70.7377 92.8609 70.8175 92.9811 70.9228 93.0694C71.0296 93.1563 71.1613 93.1998 71.3179 93.1998Z" fill="white"/>
<path d="M75.1041 93.9167C74.7631 93.9167 74.4683 93.8451 74.2195 93.7017C73.9723 93.5568 73.7813 93.3555 73.6467 93.0977C73.5121 92.8384 73.4447 92.5379 73.4447 92.1961C73.4447 91.8514 73.5121 91.5501 73.6467 91.2923C73.7813 91.033 73.9723 90.8317 74.2195 90.6883C74.4683 90.5435 74.7631 90.471 75.1041 90.471C75.445 90.471 75.7391 90.5435 75.9864 90.6883C76.2352 90.8317 76.4269 91.033 76.5615 91.2923C76.6961 91.5501 76.7634 91.8514 76.7634 92.1961C76.7634 92.5379 76.6961 92.8384 76.5615 93.0977C76.4269 93.3555 76.2352 93.5568 75.9864 93.7017C75.7391 93.8451 75.445 93.9167 75.1041 93.9167ZM75.1085 93.1998C75.2636 93.1998 75.3931 93.1563 75.497 93.0694C75.6009 92.9811 75.6791 92.8609 75.7318 92.7088C75.786 92.5567 75.813 92.3836 75.813 92.1896C75.813 91.9955 75.786 91.8224 75.7318 91.6703C75.6791 91.5182 75.6009 91.398 75.497 91.3097C75.3931 91.2213 75.2636 91.1771 75.1085 91.1771C74.9519 91.1771 74.8202 91.2213 74.7134 91.3097C74.608 91.398 74.5283 91.5182 74.4742 91.6703C74.4215 91.8224 74.3951 91.9955 74.3951 92.1896C74.3951 92.3836 74.4215 92.5567 74.4742 92.7088C74.5283 92.8609 74.608 92.9811 74.7134 93.0694C74.8202 93.1563 74.9519 93.1998 75.1085 93.1998Z" fill="white"/>
<path d="M78.6137 93.9059C78.3577 93.9059 78.1257 93.8407 77.9179 93.7104C77.7116 93.5785 77.5477 93.3852 77.4263 93.1303C77.3063 92.8739 77.2463 92.5596 77.2463 92.1874C77.2463 91.805 77.3085 91.4871 77.4329 91.2336C77.5572 90.9787 77.7226 90.7882 77.9289 90.6622C78.1367 90.5348 78.3642 90.471 78.6115 90.471C78.8003 90.471 78.9576 90.5029 79.0834 90.5666C79.2107 90.6289 79.3132 90.7071 79.3907 90.8013C79.4697 90.894 79.5297 90.9852 79.5707 91.075H79.5992V89.4021H80.5321V93.8516H79.6102V93.3171H79.5707C79.5268 93.4098 79.4646 93.5018 79.3841 93.593C79.3051 93.6828 79.202 93.7574 79.0747 93.8168C78.9488 93.8762 78.7952 93.9059 78.6137 93.9059ZM78.91 93.1694C79.0608 93.1694 79.1881 93.1288 79.2919 93.0477C79.3973 92.9652 79.4778 92.85 79.5334 92.7023C79.5905 92.5545 79.619 92.3815 79.619 92.183C79.619 91.9846 79.5912 91.8122 79.5356 91.666C79.48 91.5197 79.3995 91.4067 79.2941 91.327C79.1888 91.2474 79.0608 91.2075 78.91 91.2075C78.7564 91.2075 78.6269 91.2488 78.5215 91.3314C78.4162 91.4139 78.3364 91.5284 78.2823 91.6747C78.2282 91.8209 78.2011 91.9904 78.2011 92.183C78.2011 92.3771 78.2282 92.5487 78.2823 92.6979C78.3379 92.8457 78.4176 92.9615 78.5215 93.0455C78.6269 93.1281 78.7564 93.1694 78.91 93.1694Z" fill="white"/>
<path d="M84.1097 93.9167C83.7995 93.9167 83.5318 93.8617 83.3064 93.7516C83.0811 93.6416 82.9077 93.4924 82.7862 93.3041C82.6662 93.1143 82.6062 92.9029 82.6062 92.6697C82.6062 92.4959 82.6414 92.3416 82.7116 92.2069C82.7818 92.0722 82.8799 91.9484 83.0057 91.8354C83.1316 91.721 83.2779 91.6073 83.4447 91.4943L84.3161 90.9273C84.4287 90.8563 84.5114 90.7817 84.5641 90.7035C84.6168 90.6238 84.6431 90.5377 84.6431 90.445C84.6431 90.3566 84.6073 90.2748 84.5356 90.1995C84.4639 90.1242 84.3622 90.0872 84.2305 90.0887C84.1427 90.0887 84.0666 90.1082 84.0022 90.1473C83.9378 90.185 83.8873 90.235 83.8507 90.2972C83.8156 90.3581 83.7981 90.4261 83.7981 90.5015C83.7981 90.5942 83.8244 90.6883 83.8771 90.7839C83.9298 90.8795 84 90.9809 84.0878 91.0881C84.1756 91.1938 84.2714 91.3082 84.3753 91.4313L86.5066 93.8516H85.532L83.7542 91.8919C83.6371 91.7601 83.52 91.6225 83.403 91.4791C83.2874 91.3343 83.1908 91.1808 83.1133 91.0185C83.0357 90.8549 82.9969 90.6774 82.9969 90.4863C82.9969 90.2704 83.0474 90.0764 83.1484 89.904C83.2508 89.7316 83.3942 89.5955 83.5786 89.4956C83.763 89.3942 83.9781 89.3435 84.2239 89.3435C84.4639 89.3435 84.6709 89.392 84.845 89.489C85.0206 89.5846 85.1552 89.7121 85.2489 89.8714C85.344 90.0293 85.3916 90.2031 85.3916 90.3928C85.3916 90.6028 85.3389 90.7933 85.2335 90.9642C85.1296 91.1337 84.9833 91.2858 84.7946 91.4205L83.8771 92.0744C83.7527 92.1642 83.6605 92.2562 83.6005 92.3503C83.542 92.443 83.5127 92.5321 83.5127 92.6175C83.5127 92.7233 83.5391 92.8181 83.5917 92.9022C83.6444 92.9862 83.7191 93.0528 83.8156 93.102C83.9122 93.1498 84.0256 93.1737 84.1558 93.1737C84.3139 93.1737 84.4697 93.1382 84.6233 93.0673C84.7785 92.9949 84.9189 92.8927 85.0448 92.7609C85.1721 92.6277 85.2738 92.4698 85.3499 92.2873C85.4259 92.1048 85.464 91.9028 85.464 91.6812H86.2388C86.2388 91.9535 86.2088 92.199 86.1488 92.4177C86.0888 92.6349 86.0054 92.8247 85.8986 92.9869C85.7918 93.1477 85.6696 93.2795 85.532 93.3823C85.4881 93.4098 85.4457 93.4359 85.4047 93.4605C85.3638 93.4851 85.3213 93.5112 85.2774 93.5387C85.1106 93.672 84.924 93.7683 84.7177 93.8277C84.5129 93.8871 84.3102 93.9167 84.1097 93.9167Z" fill="white"/>
<path d="M91.3249 90.8404C91.2942 90.7347 91.251 90.6412 91.1954 90.5601C91.1398 90.4776 91.0718 90.408 90.9913 90.3516C90.9123 90.2936 90.8216 90.2494 90.7191 90.219C90.6182 90.1886 90.5062 90.1734 90.3833 90.1734C90.1536 90.1734 89.9516 90.2299 89.7775 90.3429C89.6048 90.4558 89.4702 90.6202 89.3736 90.836C89.2771 91.0504 89.2288 91.3126 89.2288 91.6225C89.2288 91.9325 89.2763 92.1961 89.3715 92.4133C89.4666 92.6306 89.6012 92.7964 89.7753 92.9108C89.9494 93.0238 90.155 93.0803 90.3921 93.0803C90.6072 93.0803 90.7908 93.0426 90.943 92.9673C91.0966 92.8906 91.2137 92.7827 91.2942 92.6436C91.3761 92.5046 91.4171 92.3402 91.4171 92.1504L91.6102 92.1787H90.4513V91.4704H92.3324V92.031C92.3324 92.422 92.249 92.758 92.0822 93.039C91.9153 93.3186 91.6856 93.5344 91.393 93.6865C91.1003 93.8371 90.7652 93.9124 90.3877 93.9124C89.9663 93.9124 89.5961 93.8204 89.2771 93.6365C88.9581 93.4511 88.7093 93.1882 88.5308 92.8478C88.3538 92.506 88.2652 92.1005 88.2652 91.6312C88.2652 91.2706 88.3179 90.949 88.4233 90.6666C88.5301 90.3827 88.6793 90.1423 88.871 89.9453C89.0627 89.7483 89.2859 89.5984 89.5405 89.4956C89.7951 89.3927 90.0709 89.3413 90.3679 89.3413C90.6225 89.3413 90.8596 89.3782 91.0791 89.4521C91.2986 89.5245 91.4932 89.6274 91.6629 89.7606C91.8341 89.8939 91.9739 90.0525 92.0822 90.2364C92.1904 90.4189 92.2599 90.6202 92.2907 90.8404H91.3249Z" fill="white"/>
<path d="M93.0287 93.8516V90.5145H93.9352V91.0967H93.9703C94.0318 90.8896 94.1349 90.7332 94.2798 90.6275C94.4247 90.5203 94.5915 90.4667 94.7802 90.4667C94.8271 90.4667 94.8775 90.4696 94.9317 90.4754C94.9858 90.4812 95.0334 90.4892 95.0743 90.4993V91.3205C95.0304 91.3075 94.9697 91.2959 94.8922 91.2858C94.8146 91.2756 94.7436 91.2706 94.6793 91.2706C94.5417 91.2706 94.4188 91.3002 94.3105 91.3596C94.2037 91.4176 94.1188 91.4987 94.0559 91.603C93.9945 91.7072 93.9637 91.8275 93.9637 91.9636V93.8516H93.0287Z" fill="white"/>
<path d="M95.5578 93.8516V90.5145H96.4928V93.8516H95.5578ZM96.0275 90.0843C95.8885 90.0843 95.7692 90.0387 95.6697 89.9475C95.5717 89.8548 95.5227 89.744 95.5227 89.6151C95.5227 89.4876 95.5717 89.3782 95.6697 89.287C95.7692 89.1943 95.8885 89.1479 96.0275 89.1479C96.1665 89.1479 96.285 89.1943 96.383 89.287C96.4826 89.3782 96.5323 89.4876 96.5323 89.6151C96.5323 89.744 96.4826 89.8548 96.383 89.9475C96.285 90.0387 96.1665 90.0843 96.0275 90.0843Z" fill="white"/>
<path d="M98.1768 89.4021V93.8516H97.2418V89.4021H98.1768Z" fill="white"/>
<path d="M99.8609 89.4021V93.8516H98.9258V89.4021H99.8609Z" fill="white"/>
</svg>
