<svg width="95" height="31" viewBox="0 0 95 31" fill="none" xmlns="http://www.w3.org/2000/svg">
<path d="M4.77817 0.0582243L0.0195312 11.1223H3.11767L3.99571 8.90673H9.10015L9.97356 11.1223H13.14L8.38572 0.0582243H4.77817ZM6.53878 2.63309L8.09464 6.50472H4.97838L6.53878 2.63309ZM13.4675 11.1204V0.0563354L17.8701 0.0726587L20.4308 7.20614L22.9302 0.0563354H27.2976V11.1204H24.5316V2.96794L21.5995 11.1204H19.1737L16.2335 2.96794V11.1204H13.4675ZM29.1901 11.1204V0.0563354H38.2161V2.53119H31.9853V4.4237H38.0705V6.75306H31.9853V8.71841H38.2161V11.1204H29.1901ZM39.8176 0.0582243V11.1223H42.5836V7.1916H43.7482L47.0646 11.1223H50.4449L46.8053 7.04602C48.299 6.91997 49.8398 5.63801 49.8398 3.64765C49.8398 1.31943 48.0124 0.0582243 45.9729 0.0582243H39.8176ZM42.5836 2.53307H45.7453C46.5039 2.53307 47.0556 3.12636 47.0556 3.69766C47.0556 4.43266 46.3407 4.86234 45.7863 4.86234H42.5836V2.53307ZM53.7932 11.1204H50.969V0.0563354H53.7932V11.1204ZM60.4899 11.1204H59.8804C56.9307 11.1204 55.1398 8.79653 55.1398 5.63386C55.1398 2.39296 56.9106 0.0563354 60.6354 0.0563354H63.6926V2.67677H60.5237C59.0117 2.67677 57.9423 3.85683 57.9423 5.66112C57.9423 7.80386 59.1651 8.70378 60.9266 8.70378H61.6545L60.4899 11.1204ZM66.5088 0.0582243L61.7501 11.1223H64.8483L65.7262 8.90673H70.8306L71.7042 11.1223H74.8705L70.1164 0.0582243H66.5088ZM68.2694 2.63309L69.8252 6.50472H66.7089L68.2694 2.63309ZM75.1935 11.1204V0.0563354H78.7102L83.2004 7.00781V0.0563354H85.9665V11.1204H82.5635L77.9595 3.98704V11.1204H75.1935ZM20.1642 30.4826V19.4185H29.1901V21.8933H22.9593V23.7859H29.0445V26.1152H22.9593V28.0806H29.1901V30.4826H20.1642ZM64.3915 30.4826V19.4185H73.4174V21.8933H67.1866V23.7859H73.2428V26.1152H67.1865V28.0806H73.4173V30.4826H64.3915ZM29.5405 30.4826L33.9352 25.0188L29.4358 19.4185H32.9207L35.6003 22.8805L38.289 19.4185H41.6374L37.1972 24.9505L41.5999 30.4826H38.1157L35.5139 27.0751L32.9753 30.4826H29.5405ZM41.9285 19.4204V30.4845H44.7673V26.9906H47.6789C50.1425 26.9906 52.0099 25.6835 52.0099 23.1418C52.0099 21.0361 50.5453 19.4204 48.0382 19.4204H41.9285ZM44.7673 21.9226H47.8335C48.6294 21.9226 49.1983 22.4104 49.1983 23.1963C49.1983 23.9347 48.6323 24.4702 47.8244 24.4702H44.7673V21.9226ZM53.2109 19.4185V30.4826H55.9769V26.5519H57.1416L60.4581 30.4826H63.8382L60.1988 26.4064C61.6924 26.2803 63.2331 24.9983 63.2331 23.0079C63.2331 20.6797 61.4057 19.4185 59.3662 19.4185H53.2109ZM55.9769 21.8933H59.1387C59.8972 21.8933 60.449 22.4866 60.449 23.058C60.449 23.793 59.7341 24.2226 59.1797 24.2226H55.9769V21.8933ZM74.6985 30.4826V28.0806H80.2342C81.0533 28.0806 81.408 27.6379 81.408 27.1524C81.408 26.6873 81.0544 26.2171 80.2342 26.2171H77.7327C75.5583 26.2171 74.3473 24.8924 74.3473 22.9034C74.3473 21.1293 75.4563 19.4185 78.6875 19.4185H84.0739L82.9093 21.908H78.2507C77.3602 21.908 77.0861 22.3752 77.0861 22.8215C77.0861 23.28 77.4248 23.7859 78.1051 23.7859H80.7255C83.1494 23.7859 84.2013 25.1608 84.2013 26.9613C84.2013 28.8972 83.0292 30.4826 80.5936 30.4826H74.6985ZM84.8505 30.4826V28.0806H90.3861C91.2053 28.0806 91.5599 27.6379 91.5599 27.1524C91.5599 26.6873 91.2064 26.2171 90.3861 26.2171H87.8847C85.7102 26.2171 84.4993 24.8924 84.4993 22.9034C84.4993 21.1293 85.6082 19.4185 88.8394 19.4185H94.2259L93.0612 21.908H88.4027C87.5122 21.908 87.238 22.3752 87.238 22.8215C87.238 23.28 87.5767 23.7859 88.2571 23.7859H90.8775C93.3014 23.7859 94.3532 25.1608 94.3532 26.9613C94.3532 28.8972 93.1812 30.4826 90.7456 30.4826H84.8505Z" fill="#016FD0"/>
</svg>
